<svg width="560" height="160" viewBox="0 0 560 160" fill="none" xmlns="http://www.w3.org/2000/svg">
  <defs>
    <linearGradient id="g1" x1="20" y1="20" x2="140" y2="140" gradientUnits="userSpaceOnUse">
      <stop stop-color="#2563EB"/>
      <stop offset="1" stop-color="#7C3AED"/>
    </linearGradient>
    <linearGradient id="g2" x1="200" y1="40" x2="520" y2="120" gradientUnits="userSpaceOnUse">
      <stop stop-color="#1E293B"/>
      <stop offset="1" stop-color="#0F172A"/>
    </linearGradient>
  </defs>
  <rect x="12" y="12" width="136" height="136" rx="34" fill="url(#g1)"/>
  <path d="M42 80C42 59.5655 58.5655 43 79 43H91C111.435 43 128 59.5655 128 80C128 100.434 111.435 117 91 117H79C58.5655 117 42 100.434 42 80Z" fill="none" stroke="white" stroke-width="9"/>
  <path d="M68 62H90C100.493 62 109 70.5066 109 81C109 91.4934 100.493 100 90 100H68V62Z" fill="white"/>
  <circle cx="103" cy="81" r="4.5" fill="#4F46E5"/>
  <path d="M194 107V52H220.1C237 52 248.6 62.7 248.6 79.5C248.6 96.3 237 107 220.1 107H194ZM207 95.3H219.6C228.8 95.3 235.1 89 235.1 79.5C235.1 70 228.8 63.7 219.6 63.7H207V95.3Z" fill="url(#g2)"/>
  <path d="M275.011 108.6C262.111 108.6 251.611 98.2 251.611 85.2C251.611 72.1 262.111 61.8 275.011 61.8C288.011 61.8 298.411 72.1 298.411 85.2C298.411 98.2 288.011 108.6 275.011 108.6ZM275.011 97.7C281.211 97.7 285.911 92.6 285.911 85.2C285.911 77.7 281.211 72.6 275.011 72.6C268.811 72.6 264.111 77.7 264.111 85.2C264.111 92.6 268.811 97.7 275.011 97.7Z" fill="url(#g2)"/>
  <path d="M316.638 107V63.4H328.438L329.138 68.5C332.238 64.7 337.038 61.8 344.238 61.8C354.438 61.8 361.238 68.4 361.238 79.6V107H348.738V81.8C348.738 76.1 345.438 72.8 339.938 72.8C334.138 72.8 329.138 76.8 329.138 84.3V107H316.638Z" fill="url(#g2)"/>
  <path d="M389.366 108.4C381.166 108.4 375.366 103.8 375.366 96.5C375.366 89 381.266 84.6 391.066 84.6H404.266V83.4C404.266 76.8 400.866 72.8 394.666 72.8C389.266 72.8 385.466 75.8 384.766 80.3H372.666C373.366 69.2 382.066 61.8 395.366 61.8C409.466 61.8 416.766 69.6 416.766 82.9V107H405.666L404.966 101.9C402.266 105.8 397.566 108.4 389.366 108.4ZM392.466 99.1C399.166 99.1 404.266 94.5 404.266 88.7V88.1H392.966C388.066 88.1 385.866 90.2 385.866 93.4C385.866 96.8 388.566 99.1 392.466 99.1Z" fill="url(#g2)"/>
  <path d="M437.836 107V63.4H449.636L450.336 69.8C453.036 65.4 457.436 62.5 463.736 62.5H468.036V74.1H462.736C454.936 74.1 450.336 78.2 450.336 87.2V107H437.836Z" fill="url(#g2)"/>
</svg>
